  0
SECTION
  2
HEADER
  9
$ACADVER
  1
AC1009
  9
$FILLMODE
 70
1
  9
$EXTMIN
 10
-0.6858
 20
67.8942
 30
0.0000
  9
$EXTMAX
 10
56.3880
 20
89.4080
 30
0.0000
  0
ENDSEC
  0
SECTION
  2
TABLES
  0
TABLE
  2
LTYPE
 70
1
  0
LTYPE
  2
CONTINUOUS
 70
64
  3
Solid line
 72
65
 73
0
 40
0
  0
ENDTAB
  0
TABLE
  2
LAYER
 70
255
  0
LAYER
  2
91
 70
64
 62
94
  6
CONTINUOUS
  0
LAYER
  2
92
 70
64
 62
174
  6
CONTINUOUS
  0
LAYER
  2
94
 70
64
 62
14
  6
CONTINUOUS
  0
LAYER
  2
95
 70
64
 62
251
  6
CONTINUOUS
  0
LAYER
  2
96
 70
64
 62
251
  6
CONTINUOUS
  0
LAYER
  2
97
 70
64
 62
251
  6
CONTINUOUS
  0
LAYER
  2
98
 70
64
 62
54
  6
CONTINUOUS
  0
ENDTAB
  0
ENDSEC
  0
SECTION
  2
BLOCKS
  0
BLOCK
  8
0
  2
RECT
 70
64
 10
0.0000
 20
0.0000
 30
0.0000
  3
RECT
  0
SOLID
  8
0
 10
-0.5000
 20
-0.5000
 30
0.0000
 11
0.5000
 21
-0.5000
 31
0.0000
 12
-0.5000
 22
0.5000
 32
0.0000
 13
0.5000
 23
0.5000
 33
0.0000
  0
ENDBLK
  8
0
  0
BLOCK
  8
0
  2
PIE
 70
64
 10
0.0000
 20
0.0000
 30
0.0000
  3
PIE
  0
POLYLINE
  8
0
 66
1
 10
0.0000
 20
0.0000
 30
0.0000
 40
0.5000
 41
0.5000
 70
0
  0
VERTEX
  8
0
 10
0.0000
 20
-0.2500
 30
0.0000
 42
1.0000
  0
VERTEX
  8
0
 10
0.0000
 20
0.2500
 30
0.0000
 42
1.0000
  0
VERTEX
  8
0
 10
0.0000
 20
-0.2500
 30
0.0000
  0
SEQEND
  8
0
  0
ENDBLK
  8
0
  0
ENDSEC
  0
SECTION
  2
ENTITIES
  0
POLYLINE
  8
91
 66
1
 10
0.0000
 20
0.0000
 30
0.0000
 40
6.4516
 41
6.4516
 70
0
  0
VERTEX
  8
91
 10
2.5400
 20
78.7400
 30
0.0000
  0
VERTEX
  8
91
 10
2.5400
 20
71.1200
 30
0.0000
  0
SEQEND
  8
0
  0
POLYLINE
  8
91
 66
1
 10
0.0000
 20
0.0000
 30
0.0000
 40
3.2258
 41
3.2258
 70
0
  0
VERTEX
  8
91
 10
0.9271
 20
71.1200
 30
0.0000
 42
1.0000
  0
VERTEX
  8
91
 10
4.1529
 20
71.1200
 30
0.0000
  0
SEQEND
  8
0
  0
POLYLINE
  8
91
 66
1
 10
0.0000
 20
0.0000
 30
0.0000
 40
3.2258
 41
3.2258
 70
0
  0
VERTEX
  8
91
 10
4.1529
 20
78.7400
 30
0.0000
 42
1.0000
  0
VERTEX
  8
91
 10
0.9271
 20
78.7400
 30
0.0000
  0
SEQEND
  8
0
  0
POLYLINE
  8
91
 66
1
 10
0.0000
 20
0.0000
 30
0.0000
 40
6.4516
 41
6.4516
 70
0
  0
VERTEX
  8
91
 10
2.5400
 20
71.1200
 30
0.0000
  0
VERTEX
  8
91
 10
10.1600
 20
71.1200
 30
0.0000
  0
SEQEND
  8
0
  0
POLYLINE
  8
91
 66
1
 10
0.0000
 20
0.0000
 30
0.0000
 40
3.2258
 41
3.2258
 70
0
  0
VERTEX
  8
91
 10
10.1600
 20
69.5071
 30
0.0000
 42
1.0000
  0
VERTEX
  8
91
 10
10.1600
 20
72.7329
 30
0.0000
  0
SEQEND
  8
0
  0
POLYLINE
  8
91
 66
1
 10
0.0000
 20
0.0000
 30
0.0000
 40
3.2258
 41
3.2258
 70
0
  0
VERTEX
  8
91
 10
2.5400
 20
72.7329
 30
0.0000
 42
1.0000
  0
VERTEX
  8
91
 10
2.5400
 20
69.5071
 30
0.0000
  0
SEQEND
  8
0
  0
POLYLINE
  8
91
 66
1
 10
0.0000
 20
0.0000
 30
0.0000
 40
6.4516
 41
6.4516
 70
0
  0
VERTEX
  8
91
 10
10.1600
 20
71.1200
 30
0.0000
  0
VERTEX
  8
91
 10
10.1600
 20
78.7400
 30
0.0000
  0
SEQEND
  8
0
  0
POLYLINE
  8
91
 66
1
 10
0.0000
 20
0.0000
 30
0.0000
 40
3.2258
 41
3.2258
 70
0
  0
VERTEX
  8
91
 10
11.7729
 20
78.7400
 30
0.0000
 42
1.0000
  0
VERTEX
  8
91
 10
8.5471
 20
78.7400
 30
0.0000
  0
SEQEND
  8
0
  0
POLYLINE
  8
91
 66
1
 10
0.0000
 20
0.0000
 30
0.0000
 40
3.2258
 41
3.2258
 70
0
  0
VERTEX
  8
91
 10
8.5471
 20
71.1200
 30
0.0000
 42
1.0000
  0
VERTEX
  8
91
 10
11.7729
 20
71.1200
 30
0.0000
  0
SEQEND
  8
0
  0
POLYLINE
  8
91
 66
1
 10
0.0000
 20
0.0000
 30
0.0000
 40
6.4516
 41
6.4516
 70
0
  0
VERTEX
  8
91
 10
10.1600
 20
78.7400
 30
0.0000
  0
VERTEX
  8
91
 10
2.5400
 20
78.7400
 30
0.0000
  0
SEQEND
  8
0
  0
POLYLINE
  8
91
 66
1
 10
0.0000
 20
0.0000
 30
0.0000
 40
3.2258
 41
3.2258
 70
0
  0
VERTEX
  8
91
 10
2.5400
 20
80.3529
 30
0.0000
 42
1.0000
  0
VERTEX
  8
91
 10
2.5400
 20
77.1271
 30
0.0000
  0
SEQEND
  8
0
  0
POLYLINE
  8
91
 66
1
 10
0.0000
 20
0.0000
 30
0.0000
 40
3.2258
 41
3.2258
 70
0
  0
VERTEX
  8
91
 10
10.1600
 20
77.1271
 30
0.0000
 42
1.0000
  0
VERTEX
  8
91
 10
10.1600
 20
80.3529
 30
0.0000
  0
SEQEND
  8
0
  0
POLYLINE
  8
91
 66
1
 10
0.0000
 20
0.0000
 30
0.0000
 40
6.4516
 41
6.4516
 70
0
  0
VERTEX
  8
91
 10
2.5400
 20
77.4192
 30
0.0000
  0
VERTEX
  8
91
 10
10.1600
 20
77.4192
 30
0.0000
  0
SEQEND
  8
0
  0
POLYLINE
  8
91
 66
1
 10
0.0000
 20
0.0000
 30
0.0000
 40
3.2258
 41
3.2258
 70
0
  0
VERTEX
  8
91
 10
10.1600
 20
75.8063
 30
0.0000
 42
1.0000
  0
VERTEX
  8
91
 10
10.1600
 20
79.0321
 30
0.0000
  0
SEQEND
  8
0
  0
POLYLINE
  8
91
 66
1
 10
0.0000
 20
0.0000
 30
0.0000
 40
3.2258
 41
3.2258
 70
0
  0
VERTEX
  8
91
 10
2.5400
 20
79.0321
 30
0.0000
 42
1.0000
  0
VERTEX
  8
91
 10
2.5400
 20
75.8063
 30
0.0000
  0
SEQEND
  8
0
  0
POLYLINE
  8
91
 66
1
 10
0.0000
 20
0.0000
 30
0.0000
 40
1.0160
 41
1.0160
 70
0
  0
VERTEX
  8
91
 10
20.3200
 20
88.9000
 30
0.0000
  0
VERTEX
  8
91
 10
55.8800
 20
88.9000
 30
0.0000
  0
SEQEND
  8
0
  0
POLYLINE
  8
91
 66
1
 10
0.0000
 20
0.0000
 30
0.0000
 40
0.5080
 41
0.5080
 70
0
  0
VERTEX
  8
91
 10
55.8800
 20
88.6460
 30
0.0000
 42
1.0000
  0
VERTEX
  8
91
 10
55.8800
 20
89.1540
 30
0.0000
  0
SEQEND
  8
0
  0
POLYLINE
  8
91
 66
1
 10
0.0000
 20
0.0000
 30
0.0000
 40
0.5080
 41
0.5080
 70
0
  0
VERTEX
  8
91
 10
20.3200
 20
89.1540
 30
0.0000
 42
1.0000
  0
VERTEX
  8
91
 10
20.3200
 20
88.6460
 30
0.0000
  0
SEQEND
  8
0
  0
POLYLINE
  8
91
 66
1
 10
0.0000
 20
0.0000
 30
0.0000
 40
1.0160
 41
1.0160
 70
0
  0
VERTEX
  8
91
 10
55.8800
 20
88.9000
 30
0.0000
  0
VERTEX
  8
91
 10
55.8800
 20
76.2000
 30
0.0000
  0
SEQEND
  8
0
  0
POLYLINE
  8
91
 66
1
 10
0.0000
 20
0.0000
 30
0.0000
 40
0.5080
 41
0.5080
 70
0
  0
VERTEX
  8
91
 10
55.6260
 20
76.2000
 30
0.0000
 42
1.0000
  0
VERTEX
  8
91
 10
56.1340
 20
76.2000
 30
0.0000
  0
SEQEND
  8
0
  0
POLYLINE
  8
91
 66
1
 10
0.0000
 20
0.0000
 30
0.0000
 40
0.5080
 41
0.5080
 70
0
  0
VERTEX
  8
91
 10
56.1340
 20
88.9000
 30
0.0000
 42
1.0000
  0
VERTEX
  8
91
 10
55.6260
 20
88.9000
 30
0.0000
  0
SEQEND
  8
0
  0
POLYLINE
  8
91
 66
1
 10
0.0000
 20
0.0000
 30
0.0000
 40
1.0160
 41
1.0160
 70
0
  0
VERTEX
  8
91
 10
55.8800
 20
76.2000
 30
0.0000
  0
VERTEX
  8
91
 10
50.8000
 20
71.1200
 30
0.0000
  0
SEQEND
  8
0
  0
POLYLINE
  8
91
 66
1
 10
0.0000
 20
0.0000
 30
0.0000
 40
0.5080
 41
0.5080
 70
0
  0
VERTEX
  8
91
 10
50.6204
 20
71.2996
 30
0.0000
 42
1.0000
  0
VERTEX
  8
91
 10
50.9796
 20
70.9404
 30
0.0000
  0
SEQEND
  8
0
  0
POLYLINE
  8
91
 66
1
 10
0.0000
 20
0.0000
 30
0.0000
 40
0.5080
 41
0.5080
 70
0
  0
VERTEX
  8
91
 10
56.0596
 20
76.0204
 30
0.0000
 42
1.0000
  0
VERTEX
  8
91
 10
55.7004
 20
76.3796
 30
0.0000
  0
SEQEND
  8
0
  0
POLYLINE
  8
91
 66
1
 10
0.0000
 20
0.0000
 30
0.0000
 40
1.0160
 41
1.0160
 70
0
  0
VERTEX
  8
91
 10
50.8000
 20
71.1200
 30
0.0000
  0
VERTEX
  8
91
 10
43.1800
 20
71.1200
 30
0.0000
  0
SEQEND
  8
0
  0
POLYLINE
  8
91
 66
1
 10
0.0000
 20
0.0000
 30
0.0000
 40
0.5080
 41
0.5080
 70
0
  0
VERTEX
  8
91
 10
43.1800
 20
71.3740
 30
0.0000
 42
1.0000
  0
VERTEX
  8
91
 10
43.1800
 20
70.8660
 30
0.0000
  0
SEQEND
  8
0
  0
POLYLINE
  8
91
 66
1
 10
0.0000
 20
0.0000
 30
0.0000
 40
0.5080
 41
0.5080
 70
0
  0
VERTEX
  8
91
 10
50.8000
 20
70.8660
 30
0.0000
 42
1.0000
  0
VERTEX
  8
91
 10
50.8000
 20
71.3740
 30
0.0000
  0
SEQEND
  8
0
  0
POLYLINE
  8
91
 66
1
 10
0.0000
 20
0.0000
 30
0.0000
 40
6.4516
 41
6.4516
 70
0
  0
VERTEX
  8
91
 10
43.1800
 20
71.1200
 30
0.0000
  0
VERTEX
  8
91
 10
40.6400
 20
71.1200
 30
0.0000
  0
SEQEND
  8
0
  0
POLYLINE
  8
91
 66
1
 10
0.0000
 20
0.0000
 30
0.0000
 40
3.2258
 41
3.2258
 70
0
  0
VERTEX
  8
91
 10
40.6400
 20
72.7329
 30
0.0000
 42
1.0000
  0
VERTEX
  8
91
 10
40.6400
 20
69.5071
 30
0.0000
  0
SEQEND
  8
0
  0
POLYLINE
  8
91
 66
1
 10
0.0000
 20
0.0000
 30
0.0000
 40
3.2258
 41
3.2258
 70
0
  0
VERTEX
  8
91
 10
43.1800
 20
69.5071
 30
0.0000
 42
1.0000
  0
VERTEX
  8
91
 10
43.1800
 20
72.7329
 30
0.0000
  0
SEQEND
  8
0
  0
POLYLINE
  8
91
 66
1
 10
0.0000
 20
0.0000
 30
0.0000
 40
6.4516
 41
6.4516
 70
0
  0
VERTEX
  8
91
 10
30.4800
 20
81.2800
 30
0.0000
 42
0.4142
  0
VERTEX
  8
91
 10
40.6400
 20
71.1200
 30
0.0000
  0
SEQEND
  8
0
  0
POLYLINE
  8
91
 66
1
 10
0.0000
 20
0.0000
 30
0.0000
 40
3.2258
 41
3.2258
 70
0
  0
VERTEX
  8
91
 10
32.0929
 20
81.2800
 30
0.0000
 42
1.0000
  0
VERTEX
  8
91
 10
28.8671
 20
81.2800
 30
0.0000
  0
SEQEND
  8
0
  0
POLYLINE
  8
91
 66
1
 10
0.0000
 20
0.0000
 30
0.0000
 40
3.2258
 41
3.2258
 70
0
  0
VERTEX
  8
91
 10
40.6400
 20
69.5071
 30
0.0000
 42
1.0000
  0
VERTEX
  8
91
 10
40.6400
 20
72.7329
 30
0.0000
  0
SEQEND
  8
0
  0
ENDSEC
  0
EOF
